# xmcd
#
# Track frame offsets: 
#        150
#        20197
#        37665
#        61915
#        116430
#        149235
#        170945
#        189922
#        226527
#        256062
#
# Disc length: 3686 seconds
#
# Revision: 0
# Processed by: cddbd v1.4PL0 Copyright (c) Steve Scherf et al.
# Submitted via: ExactAudioCopy v0.95a4
#
DISCID=820e640a
DTITLE=Clas Yngstrom Trio - Tribute To Hendrix
DYEAR=2004
DGENRE=Blues
TTITLE0=Foxy Lady
TTITLE1=Manic Depression
TTITLE2=Power of Soul
TTITLE3=Voodoo Chile
TTITLE4=Fire
TTITLE5=Them Changes
TTITLE6=Hey Joe
TTITLE7=Red House
TTITLE8=Voodoo Child (Slight Return)
TTITLE9=Angel
EXTD=
EXTT0=
EXTT1=
EXTT2=
EXTT3=
EXTT4=
EXTT5=
EXTT6=
EXTT7=
EXTT8=
EXTT9=
PLAYORDER=
